<?xml version="1.0" encoding="UTF-8" standalone="no"?>
<!DOCTYPE svg PUBLIC "-//W3C//DTD SVG 1.1//EN" "http://www.w3.org/Graphics/SVG/1.1/DTD/svg11.dtd">
<svg width="100%" height="100%" viewBox="0 0 260 276" version="1.1" xmlns="http://www.w3.org/2000/svg" xmlns:xlink="http://www.w3.org/1999/xlink" xml:space="preserve" xmlns:serif="http://www.serif.com/" style="fill-rule:evenodd;clip-rule:evenodd;stroke-linecap:round;stroke-linejoin:round;">
    <g transform="matrix(2,0,0,2,0,-0.00226442)">
        <g transform="matrix(1.27452,0,0,1.27452,0,-0.000310812)">
            <path d="M48.73,15.593C25.822,15.59 7.246,34.224 7.235,57.22C7.225,80.217 25.785,98.869 48.693,98.885C71.602,98.901 90.187,80.275 90.209,57.279C90.225,46.24 85.859,35.635 78.077,27.806C70.313,19.995 59.743,15.597 48.73,15.593Z" style="fill:none;fill-rule:nonzero;stroke:rgb(58,67,116);stroke-width:1.05px;"/>
        </g>
        <g transform="matrix(1.27452,0,0,1.27452,0,-0.000310812)">
            <ellipse cx="70.476" cy="43.691" rx="1.917" ry="2.862" style="fill:rgb(35,31,32);"/>
        </g>
        <g transform="matrix(1.27452,0,0,1.27452,0,-0.000310812)">
            <path d="M0,44.902L97.429,23.257L78.262,17.645C78.262,17.645 67.881,0.37 65.11,0.01C62.338,-0.351 11.979,10.43 11.979,10.43L8.785,34.77L0,44.902ZM20.284,103.503L9.272,86.027L57.412,77.762L60.717,94.508L65.605,79.084L90.233,83.966L85.226,103.503L20.284,103.503Z" style="fill:rgb(58,67,116);fill-rule:nonzero;"/>
        </g>
        <g transform="matrix(1.27452,0,0,1.27452,0,-0.000310812)">
            <path d="M81.97,65.607L86.408,64.99L88.7,81.618C88.86,82.766 88.049,83.843 86.901,84.005L86.64,84.041C86.545,84.054 86.449,84.061 86.354,84.061C85.303,84.061 84.405,83.276 84.263,82.235L81.97,65.607Z" style="fill:white;fill-rule:nonzero;"/>
        </g>
        <g transform="matrix(1.27452,0,0,1.27452,0,-0.000310812)">
            <path d="M86.352,84.471C85.106,84.465 84.042,83.534 83.87,82.3L81.578,65.666C81.576,65.648 81.574,65.63 81.574,65.612C81.574,65.413 81.723,65.243 81.921,65.216L86.353,64.599C86.458,64.585 86.565,64.614 86.649,64.679C86.734,64.742 86.789,64.839 86.8,64.944L89.076,81.57C89.172,82.231 88.999,82.904 88.597,83.438C88.196,83.97 87.598,84.32 86.937,84.408L86.681,84.448C86.572,84.463 86.463,84.471 86.353,84.472L86.352,84.471ZM82.423,65.953L84.659,82.187C84.791,83.123 85.65,83.777 86.584,83.654L86.847,83.654C87.775,83.521 88.43,82.65 88.301,81.722L86.065,65.488L82.423,65.953Z" style="fill:rgb(58,67,116);fill-rule:nonzero;"/>
        </g>
        <g transform="matrix(1.27452,0,0,1.27452,0,-0.000310812)">
            <path d="M78.562,50.93L85.721,49.935L87.963,66.198L80.803,67.193L78.562,50.93Z" style="fill:white;fill-rule:nonzero;"/>
        </g>
        <g transform="matrix(1.27452,0,0,1.27452,0,-0.000310812)">
            <path d="M80.802,67.605C80.716,67.603 80.632,67.575 80.562,67.525C80.475,67.463 80.42,67.366 80.411,67.26L78.167,50.986C78.15,50.882 78.176,50.775 78.239,50.69C78.305,50.608 78.398,50.554 78.502,50.537L85.689,49.543C85.709,49.54 85.729,49.538 85.749,49.538C85.948,49.538 86.116,49.69 86.137,49.888L88.381,66.154C88.409,66.371 88.254,66.573 88.037,66.602L80.85,67.597L80.802,67.605ZM79.013,51.275L81.145,66.747L87.535,65.865L85.402,50.393L79.013,51.275Z" style="fill:rgb(58,67,116);fill-rule:nonzero;"/>
        </g>
        <g transform="matrix(1.27452,0,0,1.27452,0,-0.000310812)">
            <path d="M85.573,78.014L86.298,77.914C86.446,77.893 86.595,77.883 86.745,77.883C88.359,77.883 89.741,79.087 89.962,80.687L92.975,102.537C93.218,104.301 91.968,105.953 90.205,106.198L89.479,106.298C89.331,106.319 89.182,106.329 89.032,106.329C87.418,106.329 86.036,105.125 85.815,103.525L82.802,81.675C82.559,79.912 83.809,78.26 85.572,78.015L85.573,78.014Z" style="fill:white;fill-rule:nonzero;"/>
        </g>
        <g transform="matrix(1.27452,0,0,1.27452,0,-0.000310812)">
            <path d="M88.429,106.83C86.96,106.826 85.705,105.728 85.506,104.272L82.31,81.064C82.083,79.457 83.219,77.948 84.826,77.721L86.934,77.433C87.066,77.415 87.2,77.406 87.334,77.406C88.802,77.406 90.058,78.503 90.256,79.958L93.451,103.206C93.67,104.81 92.537,106.311 90.935,106.541L88.827,106.838L88.427,106.83L88.429,106.83ZM87.343,78.202C87.244,78.194 87.146,78.194 87.047,78.202L84.939,78.491C84.371,78.569 83.858,78.873 83.517,79.333C83.167,79.788 83.017,80.367 83.102,80.936L86.296,104.184C86.462,105.339 87.533,106.164 88.692,106.028L90.8,105.731C91.957,105.564 92.78,104.486 92.637,103.326L89.443,80.078C89.299,79.018 88.388,78.218 87.319,78.21L87.343,78.202Z" style="fill:rgb(58,67,116);fill-rule:nonzero;"/>
        </g>
        <g transform="matrix(1.27452,0,0,1.27452,0,-0.000310812)">
            <ellipse cx="81.569" cy="46.288" rx="19.19" ry="19.264" style="fill:white;"/>
        </g>
        <g transform="matrix(1.27452,0,0,1.27452,0,-0.000310812)">
            <path d="M81.553,65.953C71.079,65.948 62.46,57.678 61.984,47.175C61.508,36.672 69.343,27.65 79.773,26.69C90.203,25.73 99.541,33.172 100.975,43.587C102.445,54.333 94.983,64.249 84.284,65.769C83.379,65.891 82.466,65.953 81.553,65.953ZM81.553,27.417C80.685,27.417 79.817,27.476 78.957,27.594C71.425,28.639 65.261,34.136 63.341,41.521C61.421,48.907 64.121,56.727 70.185,61.333C76.229,65.93 84.494,66.419 91.038,62.567C97.598,58.707 101.195,51.26 100.152,43.699C98.854,34.394 90.945,27.459 81.585,27.417L81.553,27.417Z" style="fill:rgb(58,67,116);fill-rule:nonzero;"/>
        </g>
        <g transform="matrix(1.27452,0,0,1.27452,0,-0.000310812)">
            <ellipse cx="81.569" cy="46.288" rx="15.589" ry="15.648" style="fill:white;"/>
        </g>
        <g transform="matrix(1.27452,0,0,1.27452,0,-0.000310812)">
            <path d="M81.56,62.338C72.954,62.338 65.895,55.492 65.598,46.858C65.301,38.223 71.873,30.905 80.46,30.31C89.046,29.714 96.558,36.055 97.447,44.649C98.336,53.242 92.282,60.997 83.757,62.185C83.029,62.288 82.295,62.339 81.561,62.338L81.56,62.338ZM81.56,31.073C80.853,31.073 80.146,31.122 79.444,31.217C71.348,32.344 65.596,39.706 66.435,47.867C67.274,56.029 74.402,62.057 82.557,61.501C90.711,60.945 96.962,54.005 96.693,45.804C96.425,37.604 89.734,31.091 81.561,31.073L81.56,31.073Z" style="fill:rgb(58,67,116);fill-rule:nonzero;"/>
        </g>
        <g transform="matrix(1.27452,0,0,1.27452,0,-0.000310812)">
            <path d="M99.896,89.714C98.842,88.372 97.506,87.277 95.983,86.508C91.407,84.103 86.161,84.183 81.345,85.706C79.636,86.251 76.322,87.029 76.146,89.306C76.158,90.234 76.78,91.051 77.672,91.31C78.546,91.537 79.458,91.573 80.347,91.414C79.08,91.38 77.828,91.696 76.729,92.328C75.699,93.058 75.132,94.652 75.979,95.622C76.353,96.026 76.84,96.305 77.376,96.424C78.541,96.746 79.774,96.729 80.93,96.376C79.679,96.616 78.46,97.001 77.296,97.522C76.593,97.835 75.811,98.388 75.891,99.126C75.971,99.863 76.689,100.2 77.344,100.424C78.722,100.899 80.161,101.169 81.617,101.226C80.36,101.455 79.172,101.968 78.143,102.726C76.545,104.072 76.545,106.629 78.71,107.359C79.404,107.563 80.128,107.647 80.85,107.607C87.239,107.607 94.89,106.806 99.218,101.467C101.347,98.967 102.112,95.572 101.262,92.4C100.966,91.432 100.504,90.523 99.896,89.714Z" style="fill:white;fill-rule:nonzero;"/>
        </g>
        <g transform="matrix(1.27452,0,0,1.27452,0,-0.000310812)">
            <path d="M80.802,107.984C80.052,108.021 79.302,107.931 78.582,107.719C77.61,107.421 76.878,106.609 76.682,105.611C76.496,104.408 76.95,103.191 77.879,102.404C78.394,101.975 78.977,101.637 79.604,101.402C78.79,101.263 77.988,101.057 77.208,100.785C76.146,100.416 75.611,99.871 75.491,99.182C75.371,98.492 75.986,97.659 77.089,97.138L77.656,96.898C77.51,96.871 77.366,96.836 77.224,96.793C76.609,96.663 76.051,96.343 75.627,95.879C75.233,95.394 75.062,94.765 75.156,94.147C75.28,93.288 75.747,92.516 76.45,92.007C76.698,91.832 76.966,91.687 77.248,91.574C76.319,91.192 75.713,90.278 75.723,89.274C75.907,86.932 78.79,86.067 80.69,85.481L81.201,85.329C86.536,83.638 91.847,83.934 96.143,86.131C97.724,86.934 99.107,88.079 100.192,89.481C100.83,90.321 101.319,91.265 101.637,92.271C102.534,95.572 101.741,99.112 99.521,101.715C94.993,107.27 87.151,107.992 80.826,108L80.802,107.984ZM80.043,96.929C79.156,97.155 78.291,97.459 77.456,97.835C77.081,98.003 76.226,98.46 76.29,99.054C76.354,99.647 76.96,99.855 77.472,100.024C78.812,100.494 80.214,100.764 81.632,100.825C81.83,100.828 81.996,100.981 82.016,101.178C82.039,101.375 81.912,101.561 81.72,101.611C80.522,101.834 79.388,102.319 78.398,103.03C77.678,103.626 77.322,104.559 77.464,105.483C77.605,106.199 78.136,106.779 78.837,106.982C79.487,107.175 80.166,107.251 80.842,107.206C86.999,107.206 94.61,106.516 98.922,101.218C100.974,98.825 101.716,95.566 100.902,92.52C100.609,91.603 100.161,90.744 99.577,89.979C98.567,88.668 97.276,87.6 95.8,86.852C91.687,84.728 86.6,84.447 81.465,86.051L80.945,86.211C79.253,86.724 76.681,87.501 76.537,89.297C76.568,90.05 77.077,90.697 77.799,90.901C78.26,91.049 78.746,91.109 79.229,91.077C79.604,91.037 79.971,91.013 80.323,90.989C80.537,90.984 80.722,91.145 80.746,91.358C80.761,91.574 80.601,91.766 80.386,91.791C80.027,91.791 79.652,91.871 79.269,91.879C78.449,91.932 77.655,92.191 76.961,92.632C76.436,93.014 76.087,93.592 75.994,94.236C75.931,94.631 76.035,95.035 76.282,95.35C76.607,95.684 77.024,95.913 77.48,96.007C78.26,96.218 79.075,96.273 79.876,96.167C80.196,96.087 80.522,96.015 80.842,95.951C81.05,95.912 81.254,96.043 81.305,96.248C81.352,96.453 81.233,96.662 81.034,96.728C80.71,96.822 80.379,96.89 80.044,96.929L80.043,96.929Z" style="fill:rgb(58,67,116);fill-rule:nonzero;"/>
        </g>
        <g transform="matrix(1.27452,0,0,1.27452,0,-0.000310812)">
            <path d="M55.367,46.593C55.367,46.593 65.094,61.263 59.207,61.472C53.322,61.68 52.819,60.133 52.819,60.133" style="fill:white;fill-rule:nonzero;"/>
        </g>
        <g transform="matrix(1.27452,0,0,1.27452,0,-0.000310812)">
            <path d="M58.154,61.937C53.218,61.937 52.508,60.582 52.412,60.334C52.343,60.117 52.46,59.88 52.675,59.804C52.89,59.735 53.124,59.855 53.195,60.069C53.266,60.283 53.913,61.312 59.192,61.119C59.717,61.167 60.224,60.904 60.486,60.446C61.747,57.985 56.972,49.824 55.023,46.89C54.915,46.702 54.972,46.459 55.151,46.337C55.331,46.215 55.578,46.253 55.711,46.425C56.453,47.547 62.897,57.488 61.221,60.855C60.831,61.586 60.051,62.027 59.224,61.985L58.154,61.937Z" style="fill:rgb(58,67,116);fill-rule:nonzero;"/>
        </g>
        <g transform="matrix(1.27452,0,0,1.27452,0,-0.000310812)">
            <ellipse cx="82.455" cy="45.799" rx="3.53" ry="6.036" style="fill:rgb(192,197,220);"/>
        </g>
        <g transform="matrix(1.27452,0,0,1.27452,0,-0.000310812)">
            <ellipse cx="39.259" cy="45.799" rx="2.691" ry="4.882" style="fill:rgb(58,67,116);"/>
        </g>
    </g>
</svg>
